<?xml version="1.0" standalone="no"?>
<!DOCTYPE svg PUBLIC "-//W3C//DTD SVG 20010904//EN"
 "http://www.w3.org/TR/2001/REC-SVG-20010904/DTD/svg10.dtd">
<svg version="1.0" xmlns="http://www.w3.org/2000/svg"
 width="700.000000pt" height="700.000000pt" viewBox="0 0 700.000000 700.000000"
 preserveAspectRatio="xMidYMid meet">
<metadata>
Created by potrace 1.14, written by Peter Selinger 2001-2017
</metadata>
<g transform="translate(0.000000,700.000000) scale(0.100000,-0.100000)"
fill="#000000" stroke="none">
<path d="M3278 6995 c-2 -1 -41 -6 -87 -9 -202 -16 -441 -61 -651 -121 -131
-38 -370 -122 -385 -136 -5 -5 -15 -9 -22 -9 -43 0 -429 -209 -598 -324 -103
-70 -87 -58 -230 -171 -335 -267 -622 -604 -845 -990 -47 -81 -170 -327 -170
-339 0 -3 -11 -29 -24 -58 -102 -227 -215 -655 -241 -913 -4 -38 -10 -79 -12
-90 -9 -38 -11 -550 -2 -625 5 -41 11 -102 14 -135 16 -166 87 -482 156 -686
78 -235 209 -518 325 -702 27 -43 54 -86 59 -96 20 -34 183 -260 195 -271 3
-3 24 -27 45 -54 102 -127 266 -292 431 -436 92 -81 324 -250 425 -309 278
-167 547 -287 822 -370 117 -35 186 -53 202 -52 2 0 19 -5 37 -10 91 -27 295
-59 493 -78 84 -9 564 -6 630 3 17 2 53 7 80 11 28 3 59 8 70 10 11 1 40 6 65
10 991 152 1909 772 2434 1644 196 324 365 753 431 1091 17 90 36 201 46 270
6 47 13 99 15 115 8 61 11 562 3 625 -4 36 -10 90 -13 120 -8 73 -12 103 -26
180 -6 36 -13 79 -16 95 -13 75 -67 281 -103 390 -146 455 -391 887 -701 1240
-67 76 -266 272 -345 340 -484 416 -1112 707 -1725 801 -25 3 -52 8 -60 9 -8
2 -44 6 -80 10 -36 4 -81 10 -100 12 -42 5 -537 13 -542 8z"/>
</g>
</svg>
